<svg width="245" height="243" viewBox="0 0 245 243" fill="none" xmlns="http://www.w3.org/2000/svg">
<path d="M229.515 6.23886C251.003 17.303 242.813 77.0644 211.221 139.72C179.629 202.375 136.599 244.198 115.111 233.134C93.6226 222.069 101.813 162.308 133.405 99.6528C164.997 36.9975 208.027 -4.82529 229.515 6.23886Z" fill="#FF0000"/>
<path d="M224.931 5.0628C246.062 15.4774 238.463 75.1562 207.958 138.359C177.453 201.562 135.594 244.355 114.463 233.941C93.3326 223.526 100.932 163.847 131.437 100.644C161.942 37.4415 203.801 -5.35183 224.931 5.0628Z" fill="#FF0000"/>
<path d="M229.515 6.23886C251.003 17.303 242.813 77.0644 211.221 139.72C179.629 202.375 136.599 244.198 115.111 233.134C93.6226 222.069 101.813 162.308 133.405 99.6528C164.997 36.9975 208.027 -4.82529 229.515 6.23886Z" stroke="#E03131" stroke-width="7"/>
<path d="M224.931 5.0628C246.062 15.4774 238.463 75.1562 207.958 138.359C177.453 201.562 135.594 244.355 114.463 233.941C93.3326 223.526 100.932 163.847 131.437 100.644C161.942 37.4415 203.801 -5.35183 224.931 5.0628Z" stroke="#E03131" stroke-width="7"/>
<path d="M10.2268 28.4468C28.7203 13.8416 79.6518 48.5004 123.985 105.859C168.319 163.218 189.267 221.557 170.773 236.162C152.28 250.767 101.348 216.108 57.0146 158.749C12.6809 101.39 -8.26666 43.052 10.2268 28.4468Z" fill="#FF0000"/>
<path d="M11.8642 27.2519C29.7914 14.0861 77.4193 49.4578 118.244 106.257C159.069 163.056 177.631 219.774 159.704 232.94C141.777 246.106 94.1491 210.734 53.3242 153.935C12.4994 97.1356 -6.06292 40.4178 11.8642 27.2519Z" fill="#FF0000"/>
<path d="M10.2268 28.4468C28.7203 13.8416 79.6518 48.5004 123.985 105.859C168.319 163.218 189.267 221.557 170.773 236.162C152.28 250.767 101.348 216.108 57.0146 158.749C12.6809 101.39 -8.26666 43.052 10.2268 28.4468Z" stroke="#E03131" stroke-width="7"/>
<path d="M11.8642 27.2519C29.7914 14.0861 77.4193 49.4578 118.244 106.257C159.069 163.056 177.631 219.774 159.704 232.94C141.777 246.106 94.1491 210.734 53.3242 153.935C12.4994 97.1356 -6.06292 40.4178 11.8642 27.2519Z" stroke="#E03131" stroke-width="7"/>
</svg>
