<svg width="622" height="582" viewBox="0 0 622 582" fill="none" xmlns="http://www.w3.org/2000/svg">
<path d="M538.526 42.0935C584.152 65.3412 566.762 190.91 499.683 322.559C432.604 454.208 341.239 542.085 295.613 518.837C249.987 495.59 267.378 370.021 334.457 238.372C401.535 106.723 492.9 18.8459 538.526 42.0935Z" fill="#FFC9C9"/>
<path d="M528.794 39.6225C573.66 61.5053 557.525 186.9 492.754 319.7C427.983 452.5 339.105 542.416 294.238 520.533C249.372 498.65 265.507 373.255 330.278 240.455C395.049 107.655 483.927 17.7396 528.794 39.6225Z" fill="#FFC9C9"/>
<path d="M538.526 42.0935C584.152 65.3412 566.762 190.91 499.683 322.559C432.604 454.208 341.239 542.085 295.613 518.837C249.987 495.59 267.378 370.021 334.457 238.372C401.535 106.723 492.9 18.8459 538.526 42.0935Z" stroke="#E03131" stroke-width="7"/>
<path d="M528.794 39.6225C573.66 61.5053 557.525 186.9 492.754 319.7C427.983 452.5 339.105 542.416 294.238 520.533C249.372 498.65 265.507 373.255 330.278 240.455C395.049 107.655 483.927 17.7396 528.794 39.6225Z" stroke="#E03131" stroke-width="7"/>
<path d="M71.234 88.513C110.575 57.7761 218.923 130.716 313.234 251.429C407.545 372.143 452.107 494.917 412.766 525.654C373.425 556.391 265.077 483.451 170.766 362.738C76.4546 242.024 31.8925 119.25 71.234 88.513Z" fill="#FFC9C9"/>
<path d="M74.7172 85.9983C112.854 58.2905 214.173 132.731 301.02 252.266C387.868 371.801 427.355 491.165 389.219 518.873C351.082 546.58 249.763 472.14 162.916 352.605C76.0683 233.07 36.5806 113.706 74.7172 85.9983Z" fill="#FFC9C9"/>
<path d="M71.234 88.513C110.575 57.7761 218.923 130.716 313.234 251.429C407.545 372.143 452.107 494.917 412.766 525.654C373.425 556.391 265.077 483.451 170.766 362.738C76.4546 242.024 31.8925 119.25 71.234 88.513Z" stroke="#E03131" stroke-width="7"/>
<path d="M74.7172 85.9983C112.854 58.2905 214.173 132.731 301.02 252.266C387.868 371.801 427.355 491.165 389.219 518.873C351.082 546.58 249.763 472.14 162.916 352.605C76.0683 233.07 36.5806 113.706 74.7172 85.9983Z" stroke="#E03131" stroke-width="7"/>
</svg>
