<svg width="1684" height="677" viewBox="0 0 1684 677" fill="none" xmlns="http://www.w3.org/2000/svg">
<path d="M322.8 564.2C317.6 564.2 312.6 563 307.8 560.6C301.8 555.8 294 546 284.4 531.2L281.4 525.2C281 520 282.2 512.4 285 502.4C287.8 492.4 288.8 484.8 288 479.6C288 475.6 286 469 282 459.8C279.6 457.4 278.2 456.2 277.8 456.2L271.8 453.2C263.4 455.2 245.4 458.6 217.8 463.4C190.6 467.8 171.8 472 161.4 476C154.2 478 148.4 479 144 479C139.2 479 133.8 478.2 127.8 476.6H124.2C122.6 477.8 117.4 482.8 108.6 491.6C99.8 500 91.4 508 83.4 515.6C75.8 522.8 70.6 527.4 67.8 529.4C63.4 532.6 56.2 537.4 46.2 543.8C36.2 550.6 29 555.8 24.6 559.4C10.6 559.4 3.6 555.6 3.6 548C1.2 534.8 6 521 18 506.6L75 453.8C94.2 431.8 115.6 404.6 139.2 372.2C162.8 339.8 181 316.2 193.8 301.4C197.8 295.4 204.4 285.4 213.6 271.4C222.8 257.4 229.4 246.8 233.4 239.6C237.8 232.4 243.2 223 249.6 211.4C256 199.8 261 188.8 264.6 178.4C268.2 167.6 271.2 156.4 273.6 144.8C273.6 144.4 274.4 140.8 276 134C278 126.8 278.8 122.8 278.4 122C287.6 109.2 297 102.6 306.6 102.2L313.8 101.6C321.8 101.6 328.6 104.4 334.2 110C339.8 115.6 342.4 121.8 342 128.6L337.2 192.2C336.8 198.6 336.2 207 335.4 217.4C335 227.8 334.6 236.2 334.2 242.6C333.8 248.6 333.4 253 333 255.8C333.4 275.8 333.4 290.8 333 300.8C333 310.8 332.6 325.8 331.8 345.8C331.4 365.4 331.2 380.4 331.2 390.8C335.2 394.8 340 396.8 345.6 396.8C346.4 396.8 348.6 397.2 352.2 398C355.8 398.4 358.6 398.8 360.6 399.2C362.6 399.6 364.8 400.2 367.2 401C370 401.8 372.2 403 373.8 404.6C375.8 406.2 377.4 408.2 378.6 410.6C379 411.4 379 413 378.6 415.4C378.6 417.8 378.4 419.4 378 420.2C373.6 424.2 362 430.8 343.2 440C341.6 440.4 340 441.4 338.4 443C336.4 448.6 337.2 458.8 340.8 473.6C344.4 488.4 346.2 496.8 346.2 498.8C346.6 502.4 347.4 508 348.6 515.6C349.8 522.8 350.6 528.4 351 532.4C351.4 536.4 350.6 541 348.6 546.2C346.6 551.8 343 556.6 337.8 560.6C333.4 563 328.4 564.2 322.8 564.2ZM173.4 416.6C175.8 416.6 181 416.6 189 416.6C197 416.2 202.8 416 206.4 416C210.4 415.6 216 415.2 223.2 414.8C230.8 414 237 413.2 241.8 412.4C246.6 411.6 252 410.4 258 408.8C264 407.2 269.4 405.4 274.2 403.4L278.4 400.4L280.8 371V343.4L280.2 290.6V263C273.8 267 267.2 275.8 260.4 289.4C253.6 303 247.4 312.4 241.8 317.6C233.8 330.8 220.8 348.8 202.8 371.6C184.8 394 173.8 408 169.8 413.6C169.4 414 169.6 414.6 170.4 415.4C171.6 416.2 172.6 416.6 173.4 416.6ZM491.869 263C485.869 264.2 479.669 263.8 473.269 261.8C466.869 259.8 458.669 255.8 448.669 249.8C438.669 243.8 433.069 240.6 431.869 240.2C425.069 235.8 420.469 229.8 418.069 222.2C416.069 214.2 416.869 206.4 420.469 198.8C423.269 191.6 428.069 186 434.869 182C441.669 178 448.669 176.4 455.869 177.2C458.269 177.6 460.069 177.6 461.269 177.2C462.469 176.4 464.069 176.6 466.069 177.8C468.069 179 469.469 179.8 470.269 180.2C471.469 180.2 472.869 181.2 474.469 183.2C476.469 184.8 477.869 186 478.669 186.8C479.469 187.2 480.669 188.6 482.269 191C483.869 193 484.869 194.4 485.269 195.2C486.069 196 487.269 197.4 488.869 199.4C490.469 201.4 491.469 202.8 491.869 203.6C493.469 207.6 501.069 216.4 514.669 230C517.069 233.2 518.069 238.2 517.669 245C517.269 251.8 515.269 256.8 511.669 260L491.869 263ZM496.669 536.6C485.869 538.6 477.069 536.2 470.269 529.4C463.469 517.4 459.669 508.6 458.869 503C458.069 498.2 456.869 487.8 455.269 471.8C453.669 455.4 452.069 438.4 450.469 420.8C448.869 402.8 447.869 392.2 447.469 389C446.669 378.2 446.669 366.8 447.469 354.8C453.469 344.4 463.469 340.6 477.469 343.4C482.669 345.8 487.869 353.4 493.069 366.2C493.069 374.6 493.669 383.4 494.869 392.6C496.469 401.8 497.869 409.6 499.069 416C500.669 422.4 502.869 430.8 505.669 441.2C508.469 451.6 510.469 459.6 511.669 465.2C511.669 468.4 511.269 473.6 510.469 480.8C510.069 487.6 509.469 494.2 508.669 500.6C508.269 507 508.069 510.4 508.069 510.8C507.669 512 507.069 514.2 506.269 517.4C505.869 520.6 505.269 523.2 504.469 525.2C504.069 527.2 503.069 529.4 501.469 531.8C500.269 533.8 498.669 535.4 496.669 536.6ZM652.153 544.4C632.553 544.4 616.953 539.2 605.353 528.8C599.753 524.4 594.753 519.2 590.353 513.2C583.953 502.8 579.953 489.4 578.353 473C577.153 456.6 577.353 442.4 578.953 430.4V426.2C582.953 394.2 598.153 366 624.553 341.6C650.953 316.8 679.953 307 711.553 312.2C730.353 313 747.153 317.6 761.953 326C777.153 334 785.553 344.2 787.153 356.6L787.753 354.2L788.353 330.2L790.753 257L791.353 233C791.753 230.2 792.353 224 793.153 214.4C793.953 204.4 794.553 197.2 794.953 192.8C795.353 188 796.153 182 797.353 174.8C798.953 167.2 800.753 160.4 802.753 154.4C803.553 146.8 805.553 133.6 808.753 114.8C812.353 95.6 814.153 85.6 814.153 84.8C815.753 73.2 822.153 65.6 833.353 62C839.753 62.4 846.753 64.6 854.353 68.6C861.953 72.2 866.153 76.4 866.953 81.2C870.953 90.8 873.753 106.2 875.353 127.4L874.753 176C874.753 190.8 872.153 219.8 866.953 263C865.753 271.4 861.953 283.4 855.553 299C849.153 314.6 845.353 326.6 844.153 335V373.4L848.353 384.2L859.753 422.6C862.153 432.2 865.153 441.6 868.753 450.8C872.353 459.6 876.953 470.6 882.553 483.8C888.153 496.6 891.953 505.2 893.953 509.6C894.753 522 892.153 530.6 886.153 535.4C884.553 537.8 882.353 539 879.553 539C871.553 539 862.953 536.2 853.753 530.6C834.953 511.8 820.353 480.2 809.953 435.8C794.353 461 783.153 476.8 776.353 483.2C747.553 512.8 720.953 531.6 696.553 539.6C672.153 542.8 657.353 544.4 652.153 544.4ZM628.153 445.4C624.953 458.6 627.753 469 636.553 476.6C645.353 484.2 656.353 488 669.553 488C678.753 488 686.553 486.4 692.953 483.2C728.153 465.2 758.153 426.2 782.953 366.2C782.153 368.6 778.953 369.6 773.353 369.2C768.153 368.8 765.153 368.6 764.353 368.6C735.553 364.6 710.353 363.6 688.753 365.6C647.953 386.4 627.753 413 628.153 445.4ZM1041.83 266C1037.43 265.2 1032.83 263.2 1028.03 260C1023.23 256.4 1020.83 253.6 1020.83 251.6L1018.43 225.2C1018.43 224.8 1019.23 223 1020.83 219.8C1022.43 216.6 1024.63 213.2 1027.43 209.6C1030.63 206 1033.63 204 1036.43 203.6L1058.63 201.8C1061.03 201 1064.43 199.4 1068.83 197C1073.63 194.2 1079.23 190.6 1085.63 186.2C1092.43 181.8 1097.03 178.8 1099.43 177.2L1113.23 171.8C1122.43 167.8 1127.43 165.4 1128.23 164.6C1142.63 155 1153.43 150.6 1160.63 151.4C1161.83 151.4 1162.43 151.6 1162.43 152C1166.43 150.8 1171.83 152.4 1178.63 156.8C1185.83 160.8 1190.03 167 1191.23 175.4C1189.23 183 1184.63 189 1177.43 193.4C1170.23 197.8 1163.63 200.4 1157.63 201.2L1113.23 230C1108.83 233.2 1100.63 238.6 1088.63 246.2C1076.63 253.8 1069.83 257.4 1068.23 257C1060.63 263.8 1051.83 266.8 1041.83 266ZM946.434 426.8C956.434 405.2 972.634 382.4 995.034 358.4C1017.83 334.4 1038.43 317 1056.83 306.2C1069.23 292.6 1090.63 285.8 1121.03 285.8C1136.63 285.8 1150.03 287.4 1161.23 290.6C1184.43 304.6 1196.03 322.2 1196.03 343.4C1196.03 369.4 1182.23 393.6 1154.63 416C1151.43 417.2 1146.43 419.4 1139.63 422.6C1133.23 425.4 1129.23 427.2 1127.63 428C1126.43 428.4 1123.23 429.6 1118.03 431.6C1113.23 433.6 1110.23 434.8 1109.03 435.2C1108.23 435.6 1105.43 436.4 1100.63 437.6C1095.83 438.8 1092.23 439.6 1089.83 440C1087.83 440 1083.83 440.6 1077.83 441.8C1072.23 442.6 1067.03 443.4 1062.23 444.2C1057.43 444.6 1050.83 445.2 1042.43 446C1018.83 442.4 1002.83 436.6 994.434 428.6C987.634 439.4 984.234 447.2 984.234 452V467C989.034 483.8 1001.03 496.4 1020.23 504.8C1039.43 513.2 1058.23 516.6 1076.63 515C1086.23 515.4 1098.23 514.2 1112.63 511.4C1127.43 508.2 1144.43 503.8 1163.63 498.2C1183.23 492.2 1195.43 488.6 1200.23 487.4C1207.83 487.4 1213.83 490.6 1218.23 497C1222.63 503 1224.83 510.2 1224.83 518.6C1224.03 529.8 1214.63 538.2 1196.63 543.8C1149.43 555.4 1106.43 561.2 1067.63 561.2C1022.43 561.2 986.234 550.8 959.034 530C953.434 528.8 948.234 521.4 943.434 507.8C938.634 493.8 936.234 478.6 936.234 462.2C936.234 445.8 939.634 434 946.434 426.8ZM1012.43 405.2C1050.83 404.4 1090.83 394.8 1132.43 376.4C1139.23 367.2 1142.63 358.2 1142.63 349.4C1142.63 340.6 1138.23 335.6 1129.43 334.4C1127.43 334.8 1123.23 335.6 1116.83 336.8C1110.43 337.6 1105.63 338.4 1102.43 339.2C1099.23 340 1095.03 341.2 1089.83 342.8C1084.63 344.4 1079.83 346.4 1075.43 348.8C1071.03 351.2 1066.83 354 1062.83 357.2C1058.83 358.8 1051.83 364.4 1041.83 374C1031.83 383.6 1022.03 394 1012.43 405.2ZM1435.3 531.8C1398.1 531.8 1364.7 522.2 1335.1 503C1305.5 483.8 1287.3 458.6 1280.5 427.4C1264.5 373.4 1265.3 329.4 1282.9 295.4C1294.9 266.2 1310.7 239.6 1330.3 215.6C1350.3 191.2 1371.7 172 1394.5 158H1419.7C1426.5 157.2 1439.3 154.6 1458.1 150.2C1476.9 145.4 1491.3 143.2 1501.3 143.6C1505.3 145.2 1516.3 148.4 1534.3 153.2C1552.3 157.6 1564.9 162.4 1572.1 167.6C1591.7 176.8 1608.3 188.4 1621.9 202.4C1635.5 216 1651.7 235.8 1670.5 261.8C1670.5 262.2 1672.3 267.2 1675.9 276.8C1679.9 286 1681.9 292.2 1681.9 295.4L1675.9 318.2C1675.9 332.2 1670.7 354.4 1660.3 384.8C1646.3 414 1628.9 438 1608.1 456.8C1587.7 475.6 1561.9 494.2 1530.7 512.6C1497.5 525.4 1465.7 531.8 1435.3 531.8ZM1435.9 478.4C1441.5 478.4 1447.7 477.8 1454.5 476.6C1461.7 475 1467.3 473.6 1471.3 472.4C1475.7 471.2 1482.3 469.2 1491.1 466.4C1500.3 463.2 1506.3 461.2 1509.1 460.4C1521.5 453.2 1531.7 447.2 1539.7 442.4C1547.7 437.2 1556.7 430.6 1566.7 422.6C1576.7 414.6 1585.3 405.6 1592.5 395.6C1599.7 385.6 1605.9 374.4 1611.1 362C1622.3 334.4 1625.1 310.6 1619.5 290.6C1611.9 273 1599.3 256.4 1581.7 240.8C1564.1 224.8 1546.9 213.4 1530.1 206.6C1514.1 202.6 1500.9 200.6 1490.5 200.6C1471.3 200.6 1453.7 207.2 1437.7 220.4C1436.5 223.2 1433.5 227.4 1428.7 233C1424.3 238.6 1422.1 241.6 1422.1 242C1411.3 244.8 1403.1 247.2 1397.5 249.2C1392.3 251.2 1385.9 254.6 1378.3 259.4C1370.7 263.8 1364.5 269.4 1359.7 276.2C1344.9 294.6 1336.9 306.4 1335.7 311.6C1334.9 314 1333.5 318.2 1331.5 324.2C1329.5 330.2 1328.1 334.8 1327.3 338C1326.5 341.2 1325.5 345.8 1324.3 351.8C1323.5 357.8 1323.7 362.2 1324.9 365C1326.1 371.4 1328.9 385.2 1333.3 406.4C1336.1 416 1341.5 425 1349.5 433.4C1357.5 441.8 1363.9 447.8 1368.7 451.4C1373.9 454.6 1382.3 459.6 1393.9 466.4C1406.7 474.4 1420.7 478.4 1435.9 478.4Z" fill="white"/>
<path d="M1570.01 232.737C1591.5 243.801 1583.31 303.563 1551.72 366.218C1520.13 428.873 1477.1 470.696 1455.61 459.632C1434.12 448.568 1442.31 388.806 1473.9 326.151C1505.5 263.496 1548.53 221.673 1570.01 232.737Z" fill="#FF0000"/>
<path d="M1565.43 231.561C1586.56 241.976 1578.96 301.654 1548.46 364.857C1517.95 428.06 1476.09 470.854 1454.96 460.439C1433.83 450.024 1441.43 390.346 1471.94 327.143C1502.44 263.94 1544.3 221.146 1565.43 231.561Z" fill="#FF0000"/>
<path d="M1570.01 232.737C1591.5 243.801 1583.31 303.563 1551.72 366.218C1520.13 428.873 1477.1 470.696 1455.61 459.632C1434.12 448.568 1442.31 388.806 1473.9 326.151C1505.5 263.496 1548.53 221.673 1570.01 232.737Z" stroke="#E03131" stroke-width="7"/>
<path d="M1565.43 231.561C1586.56 241.976 1578.96 301.654 1548.46 364.857C1517.95 428.06 1476.09 470.854 1454.96 460.439C1433.83 450.024 1441.43 390.346 1471.94 327.143C1502.44 263.94 1544.3 221.146 1565.43 231.561Z" stroke="#E03131" stroke-width="7"/>
<path d="M1350.73 254.945C1369.22 240.34 1420.15 274.999 1464.49 332.358C1508.82 389.717 1529.77 448.055 1511.27 462.66C1492.78 477.266 1441.85 442.607 1397.51 385.248C1353.18 327.889 1332.23 269.55 1350.73 254.945Z" fill="#FF0000"/>
<path d="M1352.36 253.75C1370.29 240.584 1417.92 275.956 1458.74 332.755C1499.57 389.554 1518.13 446.272 1500.2 459.438C1482.28 472.604 1434.65 437.232 1393.82 380.433C1353 323.634 1334.44 266.916 1352.36 253.75Z" fill="#FF0000"/>
<path d="M1350.73 254.945C1369.22 240.34 1420.15 274.999 1464.49 332.358C1508.82 389.717 1529.77 448.055 1511.27 462.66C1492.78 477.266 1441.85 442.607 1397.51 385.248C1353.18 327.889 1332.23 269.55 1350.73 254.945Z" stroke="#E03131" stroke-width="7"/>
<path d="M1352.36 253.75C1370.29 240.584 1417.92 275.956 1458.74 332.755C1499.57 389.554 1518.13 446.272 1500.2 459.438C1482.28 472.604 1434.65 437.232 1393.82 380.433C1353 323.634 1334.44 266.916 1352.36 253.75Z" stroke="#E03131" stroke-width="7"/>
</svg>
