<svg width="460" height="690" viewBox="0 0 460 690" fill="none" xmlns="http://www.w3.org/2000/svg">
<path d="M189.6 531.8C152.4 531.8 119 522.2 89.4 503C59.8 483.8 41.6 458.6 34.8 427.4C18.8 373.4 19.6 329.4 37.2 295.4C49.2 266.2 65 239.6 84.6 215.6C104.6 191.2 126 172 148.8 158H174C180.8 157.2 193.6 154.6 212.4 150.2C231.2 145.4 245.6 143.2 255.6 143.6C259.6 145.2 270.6 148.4 288.6 153.2C306.6 157.6 319.2 162.4 326.4 167.6C346 176.8 362.6 188.4 376.2 202.4C389.8 216 406 235.8 424.8 261.8C424.8 262.2 426.6 267.2 430.2 276.8C434.2 286 436.2 292.2 436.2 295.4L430.2 318.2C430.2 332.2 425 354.4 414.6 384.8C400.6 414 383.2 438 362.4 456.8C342 475.6 316.2 494.2 285 512.6C251.8 525.4 220 531.8 189.6 531.8ZM190.2 478.4C195.8 478.4 202 477.8 208.8 476.6C216 475 221.6 473.6 225.6 472.4C230 471.2 236.6 469.2 245.4 466.4C254.6 463.2 260.6 461.2 263.4 460.4C275.8 453.2 286 447.2 294 442.4C302 437.2 311 430.6 321 422.6C331 414.6 339.6 405.6 346.8 395.6C354 385.6 360.2 374.4 365.4 362C376.6 334.4 379.4 310.6 373.8 290.6C366.2 273 353.6 256.4 336 240.8C318.4 224.8 301.2 213.4 284.4 206.6C268.4 202.6 255.2 200.6 244.8 200.6C225.6 200.6 208 207.2 192 220.4C190.8 223.2 187.8 227.4 183 233C178.6 238.6 176.4 241.6 176.4 242C165.6 244.8 157.4 247.2 151.8 249.2C146.6 251.2 140.2 254.6 132.6 259.4C125 263.8 118.8 269.4 114 276.2C99.2 294.6 91.2 306.4 90 311.6C89.2 314 87.8 318.2 85.8 324.2C83.8 330.2 82.4 334.8 81.6 338C80.8 341.2 79.8 345.8 78.6 351.8C77.8 357.8 78 362.2 79.2 365C80.4 371.4 83.2 385.2 87.6 406.4C90.4 416 95.8 425 103.8 433.4C111.8 441.8 118.2 447.8 123 451.4C128.2 454.6 136.6 459.6 148.2 466.4C161 474.4 175 478.4 190.2 478.4Z" fill="white"/>
<path d="M321.155 231.737C342.643 242.801 334.453 302.563 302.861 365.218C271.269 427.873 228.239 469.696 206.751 458.632C185.262 447.568 193.453 387.806 225.044 325.151C256.636 262.496 299.666 220.673 321.155 231.737Z" fill="#FFC9C9"/>
<path d="M316.571 230.561C337.702 240.976 330.102 300.654 299.597 363.857C269.092 427.06 227.234 469.854 206.103 459.439C184.972 449.024 192.572 389.345 223.076 326.143C253.581 262.94 295.44 220.146 316.571 230.561Z" fill="#FFC9C9"/>
<path d="M321.155 231.737C342.643 242.801 334.453 302.563 302.861 365.218C271.269 427.873 228.239 469.696 206.751 458.632C185.262 447.568 193.453 387.806 225.044 325.151C256.636 262.496 299.666 220.673 321.155 231.737Z" stroke="#E03131" stroke-width="7"/>
<path d="M316.571 230.561C337.702 240.976 330.102 300.654 299.597 363.857C269.092 427.06 227.234 469.854 206.103 459.439C184.972 449.024 192.572 389.345 223.076 326.143C253.581 262.94 295.44 220.146 316.571 230.561Z" stroke="#E03131" stroke-width="7"/>
<path d="M101.866 253.945C120.36 239.34 171.291 273.999 215.625 331.358C259.959 388.717 280.906 447.055 262.413 461.66C243.919 476.266 192.988 441.607 148.654 384.248C104.321 326.889 83.373 268.55 101.866 253.945Z" fill="#FFC9C9"/>
<path d="M103.504 252.75C121.431 239.584 169.059 274.956 209.884 331.755C250.709 388.554 269.271 445.272 251.344 458.438C233.417 471.604 185.789 436.232 144.964 379.433C104.139 322.634 85.5767 265.916 103.504 252.75Z" fill="#FFC9C9"/>
<path d="M101.866 253.945C120.36 239.34 171.291 273.999 215.625 331.358C259.959 388.717 280.906 447.055 262.413 461.66C243.919 476.266 192.988 441.607 148.654 384.248C104.321 326.889 83.373 268.55 101.866 253.945Z" stroke="#E03131" stroke-width="7"/>
<path d="M103.504 252.75C121.431 239.584 169.059 274.956 209.884 331.755C250.709 388.554 269.271 445.272 251.344 458.438C233.417 471.604 185.789 436.232 144.964 379.433C104.139 322.634 85.5767 265.916 103.504 252.75Z" stroke="#E03131" stroke-width="7"/>
</svg>
