<svg width="24" height="24" viewBox="0 0 24 24" fill="white" xmlns="http://www.w3.org/2000/svg">
    <path
        d="M18 23C16.6167 23 15.4375 22.5125 14.4625 21.5375C13.4875 20.5625 13 19.3833 13 18C13 16.6167 13.4875 15.4375 14.4625 14.4625C15.4375 13.4875 16.6167 13 18 13C19.3833 13 20.5625 13.4875 21.5375 14.4625C22.5125 15.4375 23 16.6167 23 18C23 19.3833 22.5125 20.5625 21.5375 21.5375C20.5625 22.5125 19.3833 23 18 23ZM17.5 21H18.5V18.5H21V17.5H18.5V15H17.5V17.5H15V18.5H17.5V21Z M21 12V12.8037C20.1174 12.293 19.093 12 18 12C14.6863 12 12 14.6863 12 18C12 18.7014 12.1216 19.3743 12.3428 20H4V14H3V12L4 7H20L21 12ZM6 18H12V14H6V18ZM5.0498 12H18.9502L18.3496 9H5.65039L5.0498 12ZM20 6H4V4H20V6Z" />
</svg>